<?xml version="1.0" encoding="UTF-8" standalone="no"?>
<!DOCTYPE svg PUBLIC "-//W3C//DTD SVG 1.1//EN"
 "http://www.w3.org/Graphics/SVG/1.1/DTD/svg11.dtd">
<!-- Generated by graphviz version 2.40.1 (20161225.0304)
 -->
<!-- Title: %3 Pages: 1 -->
<svg width="326pt" height="727pt"
 viewBox="0.00 0.00 326.04 727.00" xmlns="http://www.w3.org/2000/svg" xmlns:xlink="http://www.w3.org/1999/xlink">
<g id="graph0" class="graph" transform="scale(1 1) rotate(0) translate(4 723)">
<title>%3</title>
<polygon fill="#3f3f3f" stroke="transparent" points="-4,4 -4,-723 322.0369,-723 322.0369,4 -4,4"/>
<text text-anchor="middle" x="159.0184" y="-9.2" font-family="Times,serif" font-size="16.00" fill="#ffffff">Network Map</text>
<!-- R5 -->
<g id="node1" class="node">
<title>R5</title>
<polygon fill="#006699" stroke="#006699" points="99.0369,-347 23.0369,-347 23.0369,-274 99.0369,-274 99.0369,-347"/>
<text text-anchor="middle" x="61.0369" y="-306.8" font-family="Helvetica,sans-Serif" font-size="14.00" fill="#ffffff">R5</text>
</g>
<!-- R4 -->
<g id="node3" class="node">
<title>R4</title>
<polygon fill="#006699" stroke="#006699" points="99.0369,-471 23.0369,-471 23.0369,-398 99.0369,-398 99.0369,-471"/>
<text text-anchor="middle" x="61.0369" y="-430.8" font-family="Helvetica,sans-Serif" font-size="14.00" fill="#ffffff">R4</text>
</g>
<!-- R5&#45;&#45;R4 -->
<g id="edge6" class="edge">
<title>R5&#45;&#45;R4</title>
<path fill="none" stroke="#00ff00" stroke-dasharray="5,2" d="M60.1843,-347.2895C60.0272,-357.8505 59.9395,-369.3813 60.0369,-380 60.0898,-385.7724 60.1743,-391.8883 60.2723,-397.8563"/>
<text text-anchor="middle" x="110.0369" y="-368.8" font-family="Courier,monospace" font-size="14.00" fill="#ffffff"> &#160;&#160;&#160;&#160;&#160;&#160;&#160;&#160;&#160;&#160;&#160;</text>
<text text-anchor="middle" x="31.2723" y="-386.6563" font-family="Courier,monospace" font-size="14.00" fill="#ffffff">Eth 0/1</text>
<text text-anchor="middle" x="31.1843" y="-351.0895" font-family="Courier,monospace" font-size="14.00" fill="#ffffff">Eth 0/1</text>
</g>
<!-- R1 -->
<g id="node2" class="node">
<title>R1</title>
<polygon fill="#006699" stroke="#006699" points="220.0369,-719 144.0369,-719 144.0369,-646 220.0369,-646 220.0369,-719"/>
<text text-anchor="middle" x="182.0369" y="-678.8" font-family="Helvetica,sans-Serif" font-size="14.00" fill="#ffffff">R1</text>
</g>
<!-- SW1 -->
<g id="node4" class="node">
<title>SW1</title>
<polygon fill="#006699" stroke="#006699" points="226.5369,-595 137.5369,-595 137.5369,-522 226.5369,-522 226.5369,-595"/>
<text text-anchor="middle" x="182.0369" y="-554.8" font-family="Helvetica,sans-Serif" font-size="14.00" fill="#ffffff">SW1</text>
</g>
<!-- R4&#45;&#45;SW1 -->
<g id="edge7" class="edge">
<title>R4&#45;&#45;SW1</title>
<path fill="none" stroke="#00ff00" stroke-dasharray="5,2" d="M58,-471.2066C58.7405,-482.5735 61.4124,-494.5744 68.0369,-504 84.2458,-527.0629 112.9056,-540.7045 137.4328,-548.572"/>
<text text-anchor="middle" x="118.0369" y="-492.8" font-family="Courier,monospace" font-size="14.00" fill="#ffffff"> &#160;&#160;&#160;&#160;&#160;&#160;&#160;&#160;&#160;&#160;&#160;</text>
<text text-anchor="middle" x="108.4328" y="-537.372" font-family="Courier,monospace" font-size="14.00" fill="#ffffff">Eth 0/4</text>
<text text-anchor="middle" x="29" y="-475.0066" font-family="Courier,monospace" font-size="14.00" fill="#ffffff">Eth 0/0</text>
</g>
<!-- SW1&#45;&#45;R1 -->
<g id="edge1" class="edge">
<title>SW1&#45;&#45;R1</title>
<path fill="none" stroke="#00ff00" stroke-dasharray="5,2" d="M182.0369,-595.0334C182.0369,-611.0358 182.0369,-629.7778 182.0369,-645.7992"/>
<text text-anchor="middle" x="232.0369" y="-616.8" font-family="Courier,monospace" font-size="14.00" fill="#ffffff"> &#160;&#160;&#160;&#160;&#160;&#160;&#160;&#160;&#160;&#160;&#160;</text>
<text text-anchor="middle" x="153.0369" y="-634.5992" font-family="Courier,monospace" font-size="14.00" fill="#ffffff">Eth 0/0</text>
<text text-anchor="middle" x="153.0369" y="-598.8334" font-family="Courier,monospace" font-size="14.00" fill="#ffffff">Eth 0/1</text>
</g>
<!-- R6 -->
<g id="node5" class="node">
<title>R6</title>
<polygon fill="#006699" stroke="#006699" points="160.0369,-99 84.0369,-99 84.0369,-26 160.0369,-26 160.0369,-99"/>
<text text-anchor="middle" x="122.0369" y="-58.8" font-family="Helvetica,sans-Serif" font-size="14.00" fill="#ffffff">R6</text>
</g>
<!-- R2 -->
<g id="node6" class="node">
<title>R2</title>
<polygon fill="#006699" stroke="#006699" points="160.0369,-223 84.0369,-223 84.0369,-150 160.0369,-150 160.0369,-223"/>
<text text-anchor="middle" x="122.0369" y="-182.8" font-family="Helvetica,sans-Serif" font-size="14.00" fill="#ffffff">R2</text>
</g>
<!-- R6&#45;&#45;R2 -->
<g id="edge3" class="edge">
<title>R6&#45;&#45;R2</title>
<path fill="none" stroke="#00ff00" stroke-dasharray="5,2" d="M122.0369,-99.0334C122.0369,-115.0358 122.0369,-133.7778 122.0369,-149.7992"/>
<text text-anchor="middle" x="172.0369" y="-120.8" font-family="Courier,monospace" font-size="14.00" fill="#ffffff"> &#160;&#160;&#160;&#160;&#160;&#160;&#160;&#160;&#160;&#160;&#160;</text>
<text text-anchor="middle" x="93.0369" y="-138.5992" font-family="Courier,monospace" font-size="14.00" fill="#ffffff">Eth 0/2</text>
<text text-anchor="middle" x="93.0369" y="-102.8334" font-family="Courier,monospace" font-size="14.00" fill="#ffffff">Eth 0/1</text>
</g>
<!-- R2&#45;&#45;R5 -->
<g id="edge2" class="edge">
<title>R2&#45;&#45;R5</title>
<path fill="none" stroke="#00ff00" stroke-dasharray="5,2" d="M83.9652,-217.9495C77.686,-224.896 71.9564,-232.687 68.0369,-241 63.2788,-251.0914 61.0366,-262.9056 60.1164,-273.9009"/>
<text text-anchor="middle" x="118.0369" y="-244.8" font-family="Courier,monospace" font-size="14.00" fill="#ffffff"> &#160;&#160;&#160;&#160;&#160;&#160;&#160;&#160;&#160;&#160;&#160;</text>
<text text-anchor="middle" x="31.1164" y="-262.7009" font-family="Courier,monospace" font-size="14.00" fill="#ffffff">Eth 0/0</text>
<text text-anchor="middle" x="54.9652" y="-206.7495" font-family="Courier,monospace" font-size="14.00" fill="#ffffff">Eth 0/1</text>
</g>
<!-- R2&#45;&#45;SW1 -->
<g id="edge4" class="edge">
<title>R2&#45;&#45;SW1</title>
<path fill="none" stroke="#00ff00" stroke-dasharray="5,2" d="M158.2144,-223.1162C162.1495,-228.7474 165.6032,-234.7726 168.0369,-241 205.3912,-336.586 195.8555,-460.8796 187.8478,-521.7059"/>
<text text-anchor="middle" x="244.0369" y="-368.8" font-family="Courier,monospace" font-size="14.00" fill="#ffffff"> &#160;&#160;&#160;&#160;&#160;&#160;&#160;&#160;&#160;&#160;&#160;</text>
<text text-anchor="middle" x="158.8478" y="-510.5059" font-family="Courier,monospace" font-size="14.00" fill="#ffffff">Eth 0/2</text>
<text text-anchor="middle" x="129.2144" y="-226.9162" font-family="Courier,monospace" font-size="14.00" fill="#ffffff">Eth 0/0</text>
</g>
<!-- R3 -->
<g id="node7" class="node">
<title>R3</title>
<polygon fill="#006699" stroke="#006699" points="286.0369,-471 210.0369,-471 210.0369,-398 286.0369,-398 286.0369,-471"/>
<text text-anchor="middle" x="248.0369" y="-430.8" font-family="Helvetica,sans-Serif" font-size="14.00" fill="#ffffff">R3</text>
</g>
<!-- R3&#45;&#45;SW1 -->
<g id="edge5" class="edge">
<title>R3&#45;&#45;SW1</title>
<path fill="none" stroke="#00ff00" stroke-dasharray="5,2" d="M228.5917,-471.0334C220.0742,-487.0358 210.0987,-505.7778 201.5712,-521.7992"/>
<text text-anchor="middle" x="268.0369" y="-492.8" font-family="Courier,monospace" font-size="14.00" fill="#ffffff"> &#160;&#160;&#160;&#160;&#160;&#160;&#160;&#160;&#160;&#160;&#160;</text>
<text text-anchor="middle" x="230.5712" y="-510.5992" font-family="Courier,monospace" font-size="14.00" fill="#ffffff">Eth 0/3</text>
<text text-anchor="middle" x="199.5917" y="-474.8334" font-family="Courier,monospace" font-size="14.00" fill="#ffffff">Eth 0/0</text>
</g>
</g>
</svg>
