<?xml version="1.0" encoding="UTF-8" standalone="no"?>
<!DOCTYPE svg PUBLIC "-//W3C//DTD SVG 1.1//EN"
 "http://www.w3.org/Graphics/SVG/1.1/DTD/svg11.dtd">
<!-- Generated by graphviz version 2.40.1 (20161225.0304)
 -->
<!-- Title: %3 Pages: 1 -->
<svg width="571pt" height="355pt"
 viewBox="0.00 0.00 570.92 355.00" xmlns="http://www.w3.org/2000/svg" xmlns:xlink="http://www.w3.org/1999/xlink">
<g id="graph0" class="graph" transform="scale(1 1) rotate(0) translate(4 351)">
<title>%3</title>
<polygon fill="#333333" stroke="transparent" points="-4,4 -4,-351 566.9167,-351 566.9167,4 -4,4"/>
<text text-anchor="middle" x="281.4583" y="-9.2" font-family="Times,serif" font-size="16.00" fill="#ffffff">Network Map</text>
<!-- R3 -->
<g id="node1" class="node">
<title>R3</title>
<polygon fill="#006699" stroke="#006699" points="153.9167,-223 77.9167,-223 77.9167,-150 153.9167,-150 153.9167,-223"/>
<text text-anchor="middle" x="115.9167" y="-182.8" font-family="Helvetica,sans-Serif" font-size="14.00" fill="#ffffff">R3</text>
</g>
<!-- R4 -->
<g id="node6" class="node">
<title>R4</title>
<polygon fill="#006699" stroke="#006699" points="92.9167,-347 16.9167,-347 16.9167,-274 92.9167,-274 92.9167,-347"/>
<text text-anchor="middle" x="54.9167" y="-306.8" font-family="Helvetica,sans-Serif" font-size="14.00" fill="#ffffff">R4</text>
</g>
<!-- R3&#45;&#45;R4 -->
<g id="edge5" class="edge">
<title>R3&#45;&#45;R4</title>
<path fill="none" stroke="#00ff00" stroke-dasharray="5,2" d="M77.6416,-212.6558C68.91,-220.6538 60.7787,-230.2254 55.9167,-241 51.3504,-251.1193 49.9369,-262.9413 50,-273.9353"/>
<text text-anchor="middle" x="105.9167" y="-244.8" font-family="Courier,monospace" font-size="14.00" fill="#ffffff"> &#160;&#160;&#160;&#160;&#160;&#160;&#160;&#160;&#160;&#160;&#160;</text>
<text text-anchor="middle" x="25" y="-262.7353" font-family="Courier,monospace" font-size="14.00" fill="#ffffff">Eth0/0</text>
<text text-anchor="middle" x="52.6416" y="-201.4558" font-family="Courier,monospace" font-size="14.00" fill="#ffffff">Eth0/1</text>
</g>
<!-- R5 -->
<g id="node8" class="node">
<title>R5</title>
<polygon fill="#006699" stroke="#006699" points="215.9167,-347 139.9167,-347 139.9167,-274 215.9167,-274 215.9167,-347"/>
<text text-anchor="middle" x="177.9167" y="-306.8" font-family="Helvetica,sans-Serif" font-size="14.00" fill="#ffffff">R5</text>
</g>
<!-- R3&#45;&#45;R5 -->
<g id="edge6" class="edge">
<title>R3&#45;&#45;R5</title>
<path fill="none" stroke="#00ff00" stroke-dasharray="5,2" d="M145.3598,-223.2843C149.2246,-229.0244 152.8877,-235.035 155.9167,-241 161.1311,-251.269 165.4183,-263.0192 168.7785,-273.9001"/>
<text text-anchor="middle" x="212.9167" y="-244.8" font-family="Courier,monospace" font-size="14.00" fill="#ffffff"> &#160;&#160;&#160;&#160;&#160;&#160;&#160;&#160;&#160;&#160;&#160;</text>
<text text-anchor="middle" x="143.7785" y="-262.7001" font-family="Courier,monospace" font-size="14.00" fill="#ffffff">Eth0/0</text>
<text text-anchor="middle" x="120.3598" y="-227.0843" font-family="Courier,monospace" font-size="14.00" fill="#ffffff">Eth0/2</text>
</g>
<!-- R6 -->
<g id="node2" class="node">
<title>R6</title>
<polygon fill="#006699" stroke="#006699" points="276.9167,-223 200.9167,-223 200.9167,-150 276.9167,-150 276.9167,-223"/>
<text text-anchor="middle" x="238.9167" y="-182.8" font-family="Helvetica,sans-Serif" font-size="14.00" fill="#ffffff">R6</text>
</g>
<!-- R2 -->
<g id="node3" class="node">
<title>R2</title>
<polygon fill="#006699" stroke="#006699" points="399.9167,-223 323.9167,-223 323.9167,-150 399.9167,-150 399.9167,-223"/>
<text text-anchor="middle" x="361.9167" y="-182.8" font-family="Helvetica,sans-Serif" font-size="14.00" fill="#ffffff">R2</text>
</g>
<!-- SW2 -->
<g id="node4" class="node">
<title>SW2</title>
<polygon fill="#006699" stroke="#006699" points="406.4167,-347 317.4167,-347 317.4167,-274 406.4167,-274 406.4167,-347"/>
<text text-anchor="middle" x="361.9167" y="-306.8" font-family="Helvetica,sans-Serif" font-size="14.00" fill="#ffffff">SW2</text>
</g>
<!-- R2&#45;&#45;SW2 -->
<g id="edge7" class="edge">
<title>R2&#45;&#45;SW2</title>
<path fill="none" stroke="#00ff00" stroke-dasharray="5,2" d="M361.9167,-223.0334C361.9167,-239.0358 361.9167,-257.7778 361.9167,-273.7992"/>
<text text-anchor="middle" x="411.9167" y="-244.8" font-family="Courier,monospace" font-size="14.00" fill="#ffffff"> &#160;&#160;&#160;&#160;&#160;&#160;&#160;&#160;&#160;&#160;&#160;</text>
<text text-anchor="middle" x="332.9167" y="-262.5992" font-family="Courier,monospace" font-size="14.00" fill="#ffffff">Eth0/11</text>
<text text-anchor="middle" x="336.9167" y="-226.8334" font-family="Courier,monospace" font-size="14.00" fill="#ffffff">Eth0/1</text>
</g>
<!-- SW1 -->
<g id="node5" class="node">
<title>SW1</title>
<polygon fill="#006699" stroke="#006699" points="344.4167,-99 255.4167,-99 255.4167,-26 344.4167,-26 344.4167,-99"/>
<text text-anchor="middle" x="299.9167" y="-58.8" font-family="Helvetica,sans-Serif" font-size="14.00" fill="#ffffff">SW1</text>
</g>
<!-- SW1&#45;&#45;R3 -->
<g id="edge3" class="edge">
<title>SW1&#45;&#45;R3</title>
<path fill="none" stroke="#00ff00" stroke-dasharray="5,2" d="M255.3847,-71.7407C211.5141,-81.7267 148.6949,-98.6869 131.9167,-117 123.7198,-125.9467 119.4539,-138.2285 117.3106,-149.9809"/>
<text text-anchor="middle" x="181.9167" y="-120.8" font-family="Courier,monospace" font-size="14.00" fill="#ffffff"> &#160;&#160;&#160;&#160;&#160;&#160;&#160;&#160;&#160;&#160;&#160;</text>
<text text-anchor="middle" x="92.3106" y="-138.7809" font-family="Courier,monospace" font-size="14.00" fill="#ffffff">Eth0/0</text>
<text text-anchor="middle" x="230.3847" y="-60.5407" font-family="Courier,monospace" font-size="14.00" fill="#ffffff">Eth0/3</text>
</g>
<!-- SW1&#45;&#45;R6 -->
<g id="edge4" class="edge">
<title>SW1&#45;&#45;R6</title>
<path fill="none" stroke="#00ff00" stroke-dasharray="5,2" d="M255.2472,-94.9436C249.0487,-101.5148 243.5632,-108.919 239.9167,-117 235.3504,-127.1193 233.9369,-138.9413 234,-149.9353"/>
<text text-anchor="middle" x="289.9167" y="-120.8" font-family="Courier,monospace" font-size="14.00" fill="#ffffff"> &#160;&#160;&#160;&#160;&#160;&#160;&#160;&#160;&#160;&#160;&#160;</text>
<text text-anchor="middle" x="209" y="-138.7353" font-family="Courier,monospace" font-size="14.00" fill="#ffffff">Eth0/1</text>
<text text-anchor="middle" x="230.2472" y="-83.7436" font-family="Courier,monospace" font-size="14.00" fill="#ffffff">Eth0/5</text>
</g>
<!-- SW1&#45;&#45;R2 -->
<g id="edge2" class="edge">
<title>SW1&#45;&#45;R2</title>
<path fill="none" stroke="#00ff00" stroke-dasharray="5,2" d="M329.3598,-99.2843C333.2246,-105.0244 336.8877,-111.035 339.9167,-117 345.1311,-127.269 349.4183,-139.0192 352.7785,-149.9001"/>
<text text-anchor="middle" x="396.9167" y="-120.8" font-family="Courier,monospace" font-size="14.00" fill="#ffffff"> &#160;&#160;&#160;&#160;&#160;&#160;&#160;&#160;&#160;&#160;&#160;</text>
<text text-anchor="middle" x="327.7785" y="-138.7001" font-family="Courier,monospace" font-size="14.00" fill="#ffffff">Eth0/0</text>
<text text-anchor="middle" x="304.3598" y="-103.0843" font-family="Courier,monospace" font-size="14.00" fill="#ffffff">Eth0/2</text>
</g>
<!-- R1 -->
<g id="node7" class="node">
<title>R1</title>
<polygon fill="#006699" stroke="#006699" points="522.9167,-223 446.9167,-223 446.9167,-150 522.9167,-150 522.9167,-223"/>
<text text-anchor="middle" x="484.9167" y="-182.8" font-family="Helvetica,sans-Serif" font-size="14.00" fill="#ffffff">R1</text>
</g>
<!-- SW1&#45;&#45;R1 -->
<g id="edge1" class="edge">
<title>SW1&#45;&#45;R1</title>
<path fill="none" stroke="#00ff00" stroke-dasharray="5,2" d="M344.5204,-69.3536C377.3025,-76.4054 421.1433,-90.2964 450.9167,-117 460.7164,-125.7893 467.9957,-138.0342 473.2482,-149.801"/>
<text text-anchor="middle" x="512.9167" y="-120.8" font-family="Courier,monospace" font-size="14.00" fill="#ffffff"> &#160;&#160;&#160;&#160;&#160;&#160;&#160;&#160;&#160;&#160;&#160;</text>
<text text-anchor="middle" x="448.2482" y="-138.601" font-family="Courier,monospace" font-size="14.00" fill="#ffffff">Eth0/0</text>
<text text-anchor="middle" x="369.5204" y="-58.1536" font-family="Courier,monospace" font-size="14.00" fill="#ffffff">Eth0/1</text>
</g>
</g>
</svg>
